<svg version="1.2" baseProfile="tiny-ps" xmlns="http://www.w3.org/2000/svg" viewBox="0 0 2122 2122" width="2122" height="2122">
	<title>62893-ai</title>
	<style>
		tspan { white-space:pre }
		.shp0 { fill: #d44269 } 
		.shp1 { fill: #f4567c } 
		.shp2 { fill: #ffffff } 
	</style>
	<g id="Capa 1">
		<g id="&lt;Group&gt;">
			<g id="&lt;Group&gt;">
				<g id="&lt;Group&gt;">
					<g id="&lt;Group&gt;">
						<path id="&lt;Path&gt;" class="shp0" d="M1519.6 1500.15C1388.21 1438.72 865.34 1093.55 912.96 991.76C960.54 889.95 1560.66 1070.01 1692 1131.47C1823.41 1192.91 1977.94 1382.4 1936.72 1470.62C1895.46 1558.78 1650.94 1561.59 1519.6 1500.15Z" />
						<path id="&lt;Path&gt;" class="shp0" d="M621.8 1519.58C683.27 1388.21 1028.41 865.34 1130.22 912.96C1232.03 960.58 1051.99 1560.65 990.52 1692.04C929.08 1823.42 739.58 1977.96 651.42 1936.72C563.24 1895.48 560.41 1650.96 621.8 1519.58Z" />
						<path id="&lt;Path&gt;" class="shp0" d="M1500.17 602.4C1438.73 733.79 1093.55 1256.66 991.74 1209.04C889.95 1161.42 1070.03 561.34 1131.45 429.94C1192.89 298.6 1382.38 144.03 1470.56 185.27C1558.75 226.5 1561.59 471.04 1500.17 602.4Z" />
						<path id="&lt;Path&gt;" class="shp0" d="M1074.73 1695.81C1025.29 1559.46 899.62 945.69 1005.26 907.38C1110.93 869.06 1407.97 1420.73 1457.4 1557.04C1506.83 1693.35 1482.13 1936.68 1390.63 1969.86C1299.07 2003.05 1124.2 1832.14 1074.73 1695.81Z" />
						<path id="&lt;Path&gt;" class="shp0" d="M1047.27 426.18C1096.71 562.54 1222.38 1176.31 1116.7 1214.66C1011.04 1252.94 714.05 701.29 664.62 564.96C615.16 428.63 639.85 185.34 731.37 152.14C822.91 118.96 997.8 289.86 1047.27 426.18Z" />
						<path id="&lt;Path&gt;" class="shp0" d="M426.19 1074.75C562.53 1025.29 1176.33 899.62 1214.66 1005.28C1252.94 1110.93 701.29 1407.93 564.96 1457.4C428.63 1506.83 185.33 1482.13 152.15 1390.57C118.96 1299.07 289.84 1124.18 426.19 1074.75Z" />
						<path id="&lt;Path&gt;" class="shp0" d="M587.54 730.59C723.34 781.5 1271.74 1084.49 1232.3 1189.71C1192.8 1294.97 580.44 1162.61 444.62 1111.71C308.82 1060.79 139.85 884 174.02 792.87C208.2 701.7 451.75 679.67 587.54 730.59Z" />
						<path id="&lt;Path&gt;" class="shp0" d="M1695.81 1047.27C1559.47 1096.73 945.65 1222.37 907.36 1116.74C869 1011.04 1420.69 714.05 1557.04 664.6C1693.35 615.16 1936.66 639.83 1969.85 731.41C2003.05 822.91 1832.16 997.84 1695.81 1047.27Z" />
						<path id="&lt;Path&gt;" class="shp1" d="M1572.37 1284.94C1446.52 1284.94 908.64 1205.88 908.64 1108.35C908.64 1010.81 1446.52 931.74 1572.37 931.74C1698.2 931.74 1889.38 1023.85 1889.38 1108.35C1889.38 1192.8 1698.2 1284.94 1572.37 1284.94Z" />
						<path id="&lt;Path&gt;" class="shp1" d="M528.57 931.74C654.42 931.74 1192.29 1010.81 1192.29 1108.35C1192.29 1205.88 654.42 1284.94 528.57 1284.94C402.72 1284.94 211.58 1192.8 211.58 1108.35C211.58 1023.85 402.72 931.74 528.57 931.74Z" />
						<path id="&lt;Path&gt;" class="shp1" d="M873.87 1630.24C873.87 1504.38 952.94 966.55 1050.48 966.55C1148.01 966.55 1227.09 1504.38 1227.09 1630.24C1227.09 1756.07 1134.97 1947.24 1050.48 1947.24C966 1947.24 873.87 1756.07 873.87 1630.24Z" />
						<path id="&lt;Path&gt;" class="shp1" d="M1227.09 586.44C1227.09 712.27 1148.01 1250.17 1050.48 1250.17C952.94 1250.17 873.87 712.27 873.87 586.44C873.87 460.59 966 269.43 1050.48 269.43C1134.97 269.43 1227.09 460.59 1227.09 586.44Z" />
						<path id="&lt;Path&gt;" class="shp1" d="M1294.63 1602.26C1205.65 1513.26 881.21 1077.01 950.2 1008.07C1019.16 939.1 1455.42 1263.54 1544.41 1352.52C1633.39 1441.48 1703.43 1641.79 1643.66 1701.53C1583.94 1761.26 1383.63 1691.22 1294.63 1602.26Z" />
						<path id="&lt;Path&gt;" class="shp1" d="M806.3 614.42C895.28 703.41 1219.72 1139.64 1150.75 1208.62C1081.77 1277.59 645.56 953.15 556.56 864.19C467.58 775.19 397.52 574.87 457.29 515.16C517 455.42 717.32 525.44 806.3 614.42Z" />
						<path id="&lt;Path&gt;" class="shp1" d="M556.56 1352.52C645.56 1263.54 1081.77 939.1 1150.75 1008.07C1219.72 1077.01 895.28 1513.26 806.3 1602.26C717.32 1691.22 517 1761.26 457.29 1701.53C397.52 1641.79 467.58 1441.48 556.56 1352.52Z" />
						<path id="&lt;Path&gt;" class="shp1" d="M1544.41 864.19C1455.39 953.15 1019.16 1277.59 950.2 1208.62C881.21 1139.64 1205.65 703.41 1294.63 614.42C1383.63 525.44 1583.94 455.41 1643.66 515.14C1703.43 574.87 1633.39 775.19 1544.41 864.19Z" />
						<path id="&lt;Path&gt;" class="shp2" d="M1048.4 1370.34C897.43 1370.34 775.06 1247.95 775.06 1097.03C775.06 946.08 897.43 823.71 1048.4 823.71C1199.32 823.71 1321.71 946.08 1321.71 1097.03C1321.71 1247.95 1199.32 1370.34 1048.4 1370.34Z" />
					</g>
				</g>
			</g>
		</g>
	</g>
</svg>